<?xml version="1.0" encoding="UTF-8"?>
<svg width="24" height="24" viewBox="0 0 24 24" fill="none" xmlns="http://www.w3.org/2000/svg">
    <path d="M21 10.975V11H21.975C21.9875 10.5125 22 10.0125 22 9.5C22 5.375 19.625 2 16.5 2C14.9375 2 13.5 2.5625 12.375 3.5C11.25 2.5625 9.8125 2 8.25 2C5.125 2 2.75 5.375 2.75 9.5C2.75 10.0125 2.7625 10.5125 2.775 11H3.75V10.975C3.7375 10.4875 3.725 10 3.725 9.5C3.725 5.9375 5.6875 3 8.25 3C9.6875 3 10.9375 3.5625 11.875 4.5L12.375 5L12.875 4.5C13.8125 3.5625 15.0625 3 16.5 3C19.0625 3 21.025 5.9375 21.025 9.5C21.025 10 21.0125 10.4875 21 10.975ZM21 12H3V21C3 21.5625 3.4375 22 4 22H20C20.5625 22 21 21.5625 21 21V12Z" fill="white"/>
</svg> 