<?xml version="1.0" encoding="UTF-8"?>
<svg width="24" height="24" viewBox="0 0 24 24" fill="none" xmlns="http://www.w3.org/2000/svg">
    <path d="M12 14C13.66 14 15 12.66 15 11V5C15 3.34 13.66 2 12 2C10.34 2 9 3.34 9 5V11C9 12.66 10.34 14 12 14ZM11 5C11 4.45 11.45 4 12 4C12.55 4 13 4.45 13 5V11C13 11.55 12.55 12 12 12C11.45 12 11 11.55 11 11V5ZM17 11C17 14.53 14.51 17.43 11.21 17.92V21H9.21V17.92C5.91 17.43 3.42 14.53 3.42 11H5.42C5.42 13.82 7.79 16 10.79 16C13.79 16 16.16 13.82 16.16 11H17Z" fill="white"/>
</svg> 